<svg width="17" height="20" viewBox="0 0 17 20" fill="none" xmlns="http://www.w3.org/2000/svg">
<path d="M14.3799 11.2045V8.02448C14.3784 6.6076 13.8756 5.23694 12.9605 4.15525C12.0454 3.07356 10.7769 2.35062 9.37988 2.11448V1.02448C9.37988 0.759259 9.27453 0.504905 9.08699 0.317368C8.89945 0.129832 8.6451 0.0244751 8.37988 0.0244751C8.11467 0.0244751 7.86031 0.129832 7.67278 0.317368C7.48524 0.504905 7.37988 0.759259 7.37988 1.02448V2.11448C5.98282 2.35062 4.71441 3.07356 3.79927 4.15525C2.88413 5.23694 2.38132 6.6076 2.37988 8.02448V11.2045C1.79633 11.4108 1.29088 11.7925 0.932821 12.2974C0.574761 12.8023 0.381622 13.4055 0.379883 14.0245V16.0245C0.379883 16.2897 0.48524 16.544 0.672776 16.7316C0.860313 16.9191 1.11467 17.0245 1.37988 17.0245H4.51988C4.75017 17.8718 5.25288 18.6199 5.95048 19.1532C6.64807 19.6865 7.50178 19.9755 8.37988 19.9755C9.25799 19.9755 10.1117 19.6865 10.8093 19.1532C11.5069 18.6199 12.0096 17.8718 12.2399 17.0245H15.3799C15.6451 17.0245 15.8995 16.9191 16.087 16.7316C16.2745 16.544 16.3799 16.2897 16.3799 16.0245V14.0245C16.3781 13.4055 16.185 12.8023 15.8269 12.2974C15.4689 11.7925 14.9634 11.4108 14.3799 11.2045ZM4.37988 8.02448C4.37988 6.96361 4.80131 5.94619 5.55146 5.19605C6.3016 4.4459 7.31902 4.02448 8.37988 4.02448C9.44075 4.02448 10.4582 4.4459 11.2083 5.19605C11.9585 5.94619 12.3799 6.96361 12.3799 8.02448V11.0245H4.37988V8.02448ZM8.37988 18.0245C8.03086 18.0224 7.68846 17.929 7.38671 17.7535C7.08497 17.5781 6.83439 17.3268 6.65988 17.0245H10.0999C9.92537 17.3268 9.67479 17.5781 9.37305 17.7535C9.07131 17.929 8.72891 18.0224 8.37988 18.0245ZM14.3799 15.0245H2.37988V14.0245C2.37988 13.7593 2.48524 13.5049 2.67278 13.3174C2.86031 13.1298 3.11467 13.0245 3.37988 13.0245H13.3799C13.6451 13.0245 13.8995 13.1298 14.087 13.3174C14.2745 13.5049 14.3799 13.7593 14.3799 14.0245V15.0245Z" fill="#8B8B8B"/>
</svg>
